<mxfile host="app.diagrams.net" modified="2023-09-16T18:59:16.463Z" agent="Mozilla/5.0 (Macintosh; Intel Mac OS X 10_15_7) AppleWebKit/537.36 (KHTML, like Gecko) Chrome/116.0.0.0 Safari/537.36" etag="7RccFntbolfEM6DVymOD" version="21.7.5" type="device">
  <diagram name="Page-1" id="txWFezz8Z9L1gcr1ABX_">
    <mxGraphModel dx="889" dy="516" grid="1" gridSize="10" guides="1" tooltips="1" connect="1" arrows="1" fold="1" page="1" pageScale="1" pageWidth="850" pageHeight="1100" math="0" shadow="0">
      <root>
        <mxCell id="0" />
        <mxCell id="1" parent="0" />
        <mxCell id="bcFrRtoI7LXR-CrgGl4P-3" value="" style="group" vertex="1" connectable="0" parent="1">
          <mxGeometry x="110" y="100" width="270" height="170" as="geometry" />
        </mxCell>
        <mxCell id="bcFrRtoI7LXR-CrgGl4P-4" value="" style="group" vertex="1" connectable="0" parent="bcFrRtoI7LXR-CrgGl4P-3">
          <mxGeometry width="270" height="170" as="geometry" />
        </mxCell>
        <mxCell id="bcFrRtoI7LXR-CrgGl4P-1" value="" style="rounded=0;whiteSpace=wrap;html=1;movable=1;resizable=1;rotatable=1;deletable=1;editable=1;locked=0;connectable=1;" vertex="1" parent="bcFrRtoI7LXR-CrgGl4P-4">
          <mxGeometry width="270" height="170" as="geometry" />
        </mxCell>
        <mxCell id="bcFrRtoI7LXR-CrgGl4P-2" value="&lt;font style=&quot;font-size: 16px;&quot;&gt;Client&lt;/font&gt;" style="text;html=1;strokeColor=none;fillColor=none;align=center;verticalAlign=middle;whiteSpace=wrap;rounded=0;movable=1;resizable=1;rotatable=1;deletable=1;editable=1;locked=0;connectable=1;" vertex="1" parent="bcFrRtoI7LXR-CrgGl4P-4">
          <mxGeometry width="60" height="30" as="geometry" />
        </mxCell>
        <mxCell id="bcFrRtoI7LXR-CrgGl4P-5" value="" style="sketch=0;aspect=fixed;pointerEvents=1;shadow=0;dashed=0;html=1;strokeColor=none;labelPosition=center;verticalLabelPosition=bottom;verticalAlign=top;align=center;fillColor=#00188D;shape=mxgraph.azure.laptop" vertex="1" parent="bcFrRtoI7LXR-CrgGl4P-4">
          <mxGeometry x="60" y="5" width="33.33" height="20" as="geometry" />
        </mxCell>
        <mxCell id="bcFrRtoI7LXR-CrgGl4P-14" value="" style="shape=image;imageAspect=0;aspect=fixed;verticalLabelPosition=bottom;verticalAlign=top;image=data:image/png,iVBORw0KGgoAAAANSUhEUgAAAOEAAADhCAMAAAAJbSJIAAAA81BMVEX///80erT/yh0nXIe/mBb/zB0jWoa9lhbDmxa7kQC+lg3KqkRQd5opYI0pYI7MohfarRk2ZY32+fv7+fLCnR707ts8bJLNsGK9lQC6jwBihKPIqEv/yAAATH0ZVYMxc6rY4ukubJ/uvRv2wxzs8PTktRrv8/Yvb6MndLEASnwLUYCXrMDhsxrU3OSvwM/H0t1xj6uKorh6lrCjtsfeypX59enp3La8ytfy69bYwojOsmbh0KHWvXrr4MH/5J3/6a10oMmdu9eUtdRhlMKvx95NiLyFq8/HpDPcyZHLq0f/0kj/7sH/4Iv/8c3/12P/9t7/34Wc3bx/AAANpElEQVR4nO2dd3faSBeHKbIoBlMNAoMMRsaJiAvYuOJNNpssjrNJ3u//aV4VpqnODMIz+PD7b8MeHT2+Zdqdq1Rqp5122mmnnSRRfWwYA0uGYYzrol8mKY2N87vr6axbatX0/sc+JjNbK3WvppOLy4GxnbjG+cW0W6qZlnRdtZQlpWatf9N13TT7eqt0Nbk7H4t+ZQYZF7NW1iLzYQXLQTXNbGlyLvrNaVS/u1L7FhwVm4dU7+tTySEtPN3UOeCg9H7pTjRFuMaT2np4riVNWRnrU53LNwMZDdE0AbrLrm8+jPFaNI9X9ZkZaj/nh3L5wNIQyP6PcjkKsSvX4FFvBRnQQitbUGfH6VAdH59ZuODPgEuvyeSpRs1vQIvtOALNR+pwEn8fVZ6Bw2fB8vCMmg3HJCFVXRrEK53EozedT0PSipI46kUfe6sDB++DrfUZ1ZoUc/I6FoNlly/95e9vX/9JczIeoAfqV6LpbE1M+EJD9xW/uX954+v6ZjQvBNNZqsM8qjqAH76j4LnkRDxDfpoVPyxemARgOo2HDi/iMfLTmTAyoC5IpGXn3T6QGZ7XUc9gLH4UnU9RnnHHiC+en/kArVhUZTHipUma0Lvw+cJpxDQa/QVH4jUgHLqEXp/6xksIQ1F0OoXzmdVExvsH5801yIhqVwgYVAvESzppQmBEtSbWTcGy0A3DBL00nQbLR1PsBBzMSQ9WhN88v3NnGjS10YWu9w0v4T/k72NuPuSm+lQMm6sBIByuXuvDJfH7v/wmTKelSDUD00NIRuIaUZiGgaiWhOGlggjT6QH8dT1ASNgShpcKJvzw1TXjYI0sIzehtcL//uXfL995V/lbQOhArkknPWEi2hG+LWG2TK0D2t1GyQhZRGnwLSbM0llxmwnpjLjNhOXtIax/5CI82B5CtJn4bgnHNVOl1zYSpurTUotaW0nIonFtR7gjlF3vn7AuO+H53WTW7ZbWkMS5tH4+qfVBLSy/pCUcTLP9hKrypCS87CZQUykx4aAUXpPHLYnWFvVZP3k+mWx4XkvaP11Js8a/3oCD2hpSAfoIb9tHfrUfX57veQFnfAv4OB3QFi56CNsFreiX5ujxmQfwigRU2SpGExBJeFNQwqUV8jeNtQDV7Do1lYkQNosRhDZk84kNcEpYcPjmeD7CTjSgohS1/TkD4MVH0XzMhDYjfTgOsGGw/Pb+yUmoFAvUnlqCgCrd6CwHoaLQIqKqWFBTKS1hzhKBeEsDaKCZjDgLhhDmKnu4MpnRaTWPMRY1mvEfFd+LBAwlzBCyMU8qiLG4jB8YB6j4XiQgJaFLeYoQtQW9CVVRWZSV0GIcIVctxPmpAefbQn2UjRBHLO7HEE51KXyUkdBGhH4anU/rsGR0uFWEmb0TaMRlJCGs3BZtQlbCzF4VIEYPitBJBUchO2EmA/w0OhKhk4pNpDyEaMzoRKRTWBMr3Ek91Zc0NsxUQK55DCe82GSVE5vAqNylJkRG1MInNrNVGKpc10CTFKyCntHbEEZixIBRkyYMwQ02fUJPCNOp1g4DHIO1Pd229CYFrpSYdwyEoxVhsRnmpnA0FD5WgDDMmgaDl+4BNy2EbWhMwGg4FA0InBRsl1ISQjd9CCHsShOGwElX1y0aq+3SXDWaELpp2KBf89xjEiZ4U3Z1KeiejhBl00JwIBoAUHiiKXuc9BYQfoomhG4aMjc9l2W8h/e5QZeTJ21FeBpDeBodiHBGI3i8R7e59dWbHa029XMnMYQwEIOXUFPPhUlBQne5YaOalQkVZRQThygQAwm7UiQa7D5+a3X5/RkQRg8WthHB7Dt4u6YkAyHeUwFchXsEYRiXSjN7n0AgBm1/w7Isgan0uIyOTExw9XAOfDQuDLHNjMAVlCF8zkb0qNHhvbwbGIYxfHaqUSJSje/C5BvjDYnWUeiOc6Op0DopNjVVAsb8y2SGw2O71ZXT+ope/r5YahZe1lxo1E5qpxrgpgGpBgyHayx/PXbgF9YK6xCeO8Vm0gyWaoKWF9drDoeJ4VmALXTddgmO8OMmNC4hTDUvfsLJWoTH3nZd/FL7WMMP6KNKPp4Pm9UEJVM4peEBTI7P8lCsgwgqM6GJQhsRzNuOEiUcRr4yk0x1irXxeUKANFGYQck06CQREKrMgOWE6sNU1eLDL7wjQCUXOyVdEYJ5W95ffcJrw2P/mzqtZRlld6Lt3hEdzBYYIE2acQjhEjGckNGGXg+13lTN1ljVKs2uPU0+5vsaAqQY7FeEcLjwD4h8NiQBdbN8dX05MMZ1NvmzgrXqRZVeuQolH7YIDhgQuQiJLnl6/+oyoUZ5t0tkQCumKIMwgw+I/tUFz3g4JOw3S6g11/ymqRGlevSAGOGN77kcc5ozDNDsDnyPbDBrfn/7sCwQfDkGC+JDvn9Swz4vxbKo6m2VM39+ePyxbDIqrxU00nyMgBihfzOKfW2B5qF6ljDg/GnfedWYqlAaWUmGBTCSkHl9iIJQb+EJ5r7d0RJgc/jidkj9iiA0wM0YyjU+1t+whAHOHwta9GszAFaYPDSOcFwjW3fFCU621RbWcuypmBxf/nSPGTCKkHGvDdvWRDHYOCok5J9KTvnEFoGuouKQcb8UmrCPFjuHWjIGzOWUCo/94giZ9ryhCbFmuM/rJxi7JjaXr5yO+PiiR3y2cwu05DVCAJ1XZVb108nIKRvlVNSsje3sCZpwgly0iOM5duATL51DCI+fAg7YWM4P4TE07Ek9z2NrAaU6WvNNuQkjVk9MZ8CeY2hLbWw1V+EOo/UJI1bATOf4vpHiiViPi+LDdjG0IMJr6lqMYxUM9sBHkQXZZsqJE67eIrimnb6eBjbfBHkG81GhgJkM2E0MrIuqU9dEAUJwxHdYkAQQDRbBRfvUdW0g0fTHHhNS74ltijDyiJShNhGsDMsrE0JA6j2xTRFGH3PT15d6uou+0JcSbFpR54cprEY4LhCzJOF+URYTnsTVfdHWeQPCLplncmL58DAMq92bUo6IJCEsWaI8PdkgIQzDsPpL2vsWJOGCsihr84CgUEHphACiT3LEZFOSEIah6DwDFxbFH2GEcLyIyTUkIcikVKe0GyWEk9Lw+7LITSNzDUHYALUEosMQ7mAELyxWqlHdziMI56BGWfhYcRpxxA0Fv1kRuZdBEB7SVvBunDAf76TEF5y2jRA5aeDaEGpCc9NZTsIqjZOmUmP4sb6I6/hSEmaonDSFTb8jZjYyElLd7HKFdY0IQ5SREJkw4naeK+xKfhiihIToJnDshXXie3EhzU1kJIS3ZKOvOrsiGgQHtXaSjxBFIVX7j3ELr+NSywdnniZR0hHuZRRoQqqeUYb3+67BlWsSEaLL6pRNagyVph2dNITIR8NvV/oQSxQN22QhRHmUsgmPo/qsvy2EGCBVIoW6i23sKQXhHtx+ohsLCTPGfTHdPVsTR+gcp55gfZSC6tejZUxrZgSke7bGTJjUH2I0Gp0QfaK06EVFiB0vZ7W+qQc1Edb77vcXGQn3MtV8QlLIXl/FgMpnSkveXU+vfH2gu9NBiocwg//Vk1RRO+QEjBMbIRqbkwbMc7cyTZgwH/2ivNKWm7Igs5duhK/YaTO3MN0mwqLWpJ/KbB9hUSssnzZowDUIAxoDM0rTtEKhuXjeLB83YfPH/po6ai+ebnmHwM0TxmxqSqUd4Y5Qfu0IgwmV5mObVouNzTg3Sqho9Cowr2ylIGRRh+vrANtEKDZqGVdPXIRKfosI+daH2hYR8q3xt4gwk6nwIG4Tob3XlqPWNhK6G7m0qmwlIYNQEdB7Jcy8J8KerXdM2Hv96+evn/+NPIySeOn6tYm911+rh332/AIIhc5pKPunRgH+RrtlfwIJi02BgKkUKNXnrqB9xZ82xxwVdZgLL2t+C8EvavGa8A/xuM8IMe4a01upTdleNAzwt+d56Cmo9zHjV8cS1gt1b8pgwp+e5/2HjBjbv/pt9AzvzHBdR+h5t61/AkJUZCF0sLCSKeiLx3dppud93i9ICEfD0D7ybySm5o30hIzVeJvU/Vp3ZD2pFCZTdMeHvpRrYzrCuhsyI/b+8jztd88FRN//EbuZaAu14MxxIO6RD/vjBSzmhZsQb1HJ2NcpwIiOCTFA6oLKjaqBfSmUveMAMSL+1fN+S03sjA0ISzYcXSN6n8FzGv/rWXwj/Ht40Tdg3k5Y2wi78wdjNPZ+/7Q5/nx+7Vl8VbyYS/B0BtMD/s1eh5EJspd5fX3NOHwKvt0oRRCu9EJ8ljiXq56wdnBxv9dIfnhTIkB04xky5qsjaks6paJVT1VfMeZLeG8uX6MoG/JkFNs3yP4fRqeVfM6zG65trhiPV/N93we07b5dK8oATvef7Q+mKl48pVg4kiSLEroJamiWczBPRyNyv9siHJ18qla8H71dGbAoVQgizdshTemcPmX5SqW6UqVSyfu+6Iv4tIWMBnT1fNSJ6tvmO3QJ4uscSReBhJ6PvF1IWVTUtPbmqmGT0uGiydcC066lvJHXP3E1bh81VkgLr7mQZpJGocbtQuvQ+qvlm53mg9zRF6j7p3ZTK0RTWnAFbfn4JqWim9H97eLIxvR1FnarfLVl++F5e+mAGvPnp4dHG7TQKVjqdApaftlevNzezyXYo0hUjfnh4f3h/N1x7bTTTjvttNX6P5DhGpVdY9bHAAAAAElFTkSuQmCC;" vertex="1" parent="bcFrRtoI7LXR-CrgGl4P-4">
          <mxGeometry x="150" y="10" width="60" height="60" as="geometry" />
        </mxCell>
        <mxCell id="bcFrRtoI7LXR-CrgGl4P-15" value="" style="shape=image;imageAspect=0;aspect=fixed;verticalLabelPosition=bottom;verticalAlign=top;image=data:image/jpeg,/9j/4AAQSkZJRgABAQAAAQABAAD/2wCEAAoHCBcWFRgWFhYWFRgZGhkcHBkZGR8cHB4YHxwZHBoZIx8eIC4lHR8rHxkYJjgmKy8xNTc1HCQ7QDszQC40NTEBDAwMEA8QHhISHzQrISExNDQ0NDQxNDQ0NDQ0ND00NDQxNDQ0NDU0NDQ0ND00ND80NDE0NDQ0ND00NDQ0NDQ0NP/AABEIAJ8BPgMBIgACEQEDEQH/xAAbAAEAAgMBAQAAAAAAAAAAAAAABAUCBgcDAf/EAEMQAAIBAgMFBgMECAQFBQAAAAECAAMRBBIhBQYxQVETImFxgZEyobFCUsHRFCNicoKy4fAVFjSSJDOi0vEHQ3ODwv/EABoBAQEBAQEBAQAAAAAAAAAAAAABAgQFAwb/xAAhEQEBAAMAAgIDAQEAAAAAAAAAAQIRIQMxBFESQWEiBf/aAAwDAQACEQMRAD8A7NERAREQEREBPOo4UEkgAAkkmwAHEk8hPSaVv3vBVw5poqIyVFbOWBN+WTQ2Ghvz/MNuwuKSouZHVx1Vgw9xPacS2PtapRcvQJXqh7wK9CPtAa68R4Tp27281LEjL8FQDVCePUqftD5jmJbElbBERIpERAREQEREBERAREQEREBERAREQEREBERAREQERPhgYlpF/wARpXt2iX/eH5zVNs7SaqxUGyA2A5G32j18J6rsQlcwYEkFlA5qACLA2NyT6Ty8vnZZZXHxY7k/e3bPiTGS+TLVrcQYvNN2LtE0nCMTlJsVP2Te1/DXiJuQM6/jfInnx3OWe4+Hn8N8OWr2X1WURE6XxIiICIiB8M5htqvULPTr3dSxNm4jXQqfs+XCdOdrAnpOYbS209Ula9NcwJAZAVI9yQw9pYlajiMO1Nri9r91h/ehk/B4hahFz2dUG6uulzyOnBvK0ltla44joZU4zAFe8uq9OY/MSsuibE3rZbU8XpyFYfCegb7p8fe3GborAgEG4OoInFNm7Vv3KhvyDH6N+c2rY21Xw5st2pc6ZPw+Kn7P7vA+HGRZft0SJFwONSqodDccxzB6EcjJUjRERAREQEREBERAREQEREBERAREQEREBERATCpwI52MziKOb0aJYhbgHqxsAR1Jm2Gh+uQGkSqKAtTMQF06XseQkPbWxGLF6QvfUr48yL8b9JV1Wrt3StS9yTZWBJJF72GvAT8/hL8a5Y5Y23e5f1Xr52eeTKZSc7/HhjCWqvqCSxFxwJuQLTf1Gk1zYuxGBFSppbUL48ifLpNlnd/z/DlhMvJnNXL9OT5vkxzuOOPfxG4Gangd5GVilcZrEjMBZh5jgR/esnb6Yaq+EcUHdKgKspVip7rBrXGutpyf/Nla9q6rUZdC1sj6cmto3tfxnpybcVunccPiVdQyMGB5j6eB8J7zlmwdr5zfD1Mr80JCv/tbRx5Xm1YfeOoulakbfeUW+R0PoRIraYkLB7Sp1fgcE9OB9jrJsBNB3xCrWAVFAZbk9WufThb3m/SFtDZyVls636HmISuW9mjfsnwg4ZhwIb5GZ71KuDrrTN2VlzBhyFyLW9J44bFhhdGDD+/aaZ0r8ds6/eUZT04A+XjMdnbSKHI98o08V/MS8SqG0+RkXHbMVxcaNyP4QJ+H2i1Jlem3LzVl6HqJvexNuJiBYd1wLsp6cLg8xeckwxalnV7gAXHQ8jb1tJu6G0GGOpt98lGH7LA6ehAPpFWV2aIiZaIiICIiAiIgIiICIiAiIgIiICIiAiIgIiICfLT7ED5PsRAq9v13SiWQ2IIubA6c9CJzLbey0xBLkBHP2lGh815zrzoCCCLg8ROP72bUbDYp6S01yDKUuxuVKi5/3Zh6SxK1bGbHq09SuYDXMmo8+o9pbbG30r0bK57dOjnvgeD8/wCK/pPShvQh+NHXyIYfgZnWfCV+LKrH7XwN7kAH1vNb+019Nv2VtrC4m2QqH+44Cvfw+9/CTNhoYhl4MxHRjm+Z73znH8Tu4471JxUHEagN4WPA+eku9hb1OhFHElkPBXYfJr/ze/WZs+iX7dMq7ZyC7U3Yc+zsxHjlJBI8rnwn3BbxYarolZL/AHWOVr9LNYn0lKmLPQHylbtbZVKvdv8Alv8AeAuD+8Bx8+Mksau1pv8A7DWvQarrmpKzaC5KgXIA53twnHqFQg5kYg+E2epUxGGOUOyqeSsSjDyOh9ReazjKBDFk01uQBb2HTwl1pne1thdscqgt+0OHqOUuaOJ0BBDA+N/nNMpVgfAyTh67IbqbdRyPmJdml9t6qCiAfeJ9h/Weu4NDPjqf7Ad/+nL/APqUuJxmcLcWIvfpy/KbR/6Wlf0qpc97siV8sy5vqsUjrMSu2rtalQW9RwCfhUasx6Ac/PgOc8Ke3ka2VWN7W4c/WZaXESrwG26NXRXs33H7rX6dD6XlpAREQEREBERAREQEREBERAREQEREBERAREQEREBNb3o3Vp4sAnuuODc5skQORYj/ANOmU2L5Qb2J1uemkg19xaq8LP8AuuB/MBOxYzDCopU3HQjiDyIlFXwlalc27ZRzGjgfQ/Ka3WfxjlT7uVaZvkrJ4qPxUTEs9srOzj7rqr/zC/zm7f5upfcq+y/90wqb00G+Kk7eaofq0bv0is2C9SmuUjufZQk3XyuSQPA+lpbvtGwvkPv/AEkT/EKNTVErL42XL83+kjUcWj6A69DoT+czcWpU2rtGm6lXRiDyNj+M1fa2ERWuhYqfssNR6jiJaVUyk/3pKivUzMT7eU1MYlqor4YNqND9Z4o5Gje/OWz07+ci1qN+Oh6yWaN7ZUaeZT8pI2HiqlCqKyEKyhlFxe4ZSOHrceIEradK5seAnStlMKlCmzAN3ADcA6r3T8wYuWiTbWaVR6jtUqMzNzZjc3/IdOUuNibdpK4pu4uSctgW15g5QbddfGUm9dNkxCCmiMrUwcnZq65gzAnKVIGmXWTNkVGFjVwmEA6ogV/lcfSMu48MeXqyxqK1R8jKyk3uDfjqR73m0bpY4nNSZi2l0zG5sNCNeXA285rlXZ+GcdogZaiKLKXcd0albZrEWvoJJ2dthEt3Cp+8tifn+cxjvX+vb6Za3/n06JEqNk7aStoD3vIj5GW80yREQEREBERAREQEREBERAREQEREBERAREQEREBMWF9JlEDR9o7ih3ZkfKGJNvOUOI2AKD5X7x4i/C34zqsi4zA06os6hvrLupqOW7RqZUsOLd0AdOfy+srKWznbllH7X5cZ0fae7Shb0RYjipPETXa2BqqCTTcW8NJZSxTtQsMjuzjnawsOgJBMlYbZOGfTPURujFfkctjK3E41VJubt0HH+kr620HbRe6PDU+8bTTZ8Tu/QQXesyD9oqPw1lHjFww0R6lQ/uhV9zr8pX1KDhS73AA1LcegHUzNFAGnvE3S6jzFAdZt26+JRKQV72DNYjhY66jjxJmrS92UP1Y8z9YykMa2bamyqOKp5DbT4XX4kPX8weM5dtfYtXD1OzdS2Y9xlBIceHj1XiPYncq+OWlqWKnkB8Rmy7pq2KQVaoGVXORbcSNMxPX4hEuizal3M3EGVa2IGp1CdP6+PtN3G7+HH/tiWoiZtaRMPs6mhuiKp6gSZEQEREBERAREQEREBERAREQEREBERAREQEREBERAREQEREBMWUEWOomUQKPF7s4dyWZAPKcaxG2FSvUNNENLOwTQA5AbAhgOYF/Wdf352j2GCrODZmXIpHHM5y3HiASfSci2Nse9nqDT7KHn4nw8Jqf1mvfH566IVVkQ943Gp6aA8OJv5T22VhEYZCWuOBvxHtylwlMngJhiMMEVqhtdFZtOdgTY+fCNmnimwyxsjEnplv8AO+kkY7ZmKo0wEQOBcsyd5hck/Db5i898BvExRWRKag8rNe/MHvamSP8AMFTonsf+6OnGj2ZmtqzMba8SxNre87lsHAijh6dMfZUX8+ZmpbFwRxVZatSmg7Mg5wpDEjgL373rebrisYlMAuyqOV+J8hxMipUSvwu16NQ2RwTyBupPlmAvLCRSIiAiIgIiICIiAiIgIiQl2lSL9mHGe5GXW9xe44eECbEhYjaNNGCu4VjYgG/Amw+kzxeNSmAXYLfhf+kCVEwRgQCOBFx5TOAiQa206SvkZwH0GXXibW5eIn2rtOkr5GcB7gZdeJtbl4iBNiIgIkStj6atkZ1VtNCddeElwEREBERAREQETBmAFzoBNM3j3jDAohsn2m5t4Dov1+oRN+toJVyIFNRKb5jY6F7FVPA5gLt6nwlDS2kn3HHpeV2IxbO1xoF1HQeJkrDO9RCVsmpFz9QJq89s7WCbQQ8yPNSPwkTb2IBw75CGJAWw1OrAHQeF5jsTZ71az0k7wUXZjoL/APm/tLbEYKn+kUsNWDUVcWUnVTWue6zcyy2y+o5xw60rYTOj5Cj5W/ZOjdfw9pvGy936lUglSqcydNJsY3bFMXRlsBchwOXPMNR7ylxm8WLornp0+2QakPxy8ipUA+jayflaa03nB4VaahFFgJpu8+YYglgStlyjhdbC4B5d7NJewd7nrMqVMP2ZqfC6VA6str5xdRpqNNTre1rkZbcx9RKmWpTR6d7qCujDpmN7MPDp0gvpCpDCu661KHrcX5EOblfUe0t9u7aeg6qoVgUDEsCTe7DkwHKa3iStVwKFJlvplDE3PXwHykzeSkVakpNytFFJ8QWBMG0+tvBWpuBUpqqmxt9rIeBve1/T2lltXadVCFpUme4BzZWK68Bpz9Zre2cYMRUQIrXChcpGua5uP78Z67w1HV1psWCKqAAcGFgGbxN7jXpBtN/x+tTcJWRbG18vEA6XBDEddJJ2ztx6NYIFQpZSbg5rEm9je3AdJrO0OzzA0lZUyixbixBN28uXpLPer/Ur+4n8zQbTG29WFHtCigmoFAKtbIVLXGovqOM9Nmbdeo12ULTVCWYKfiC3Ot9Bx04z13y/5Kf/ACD+V592VQz4LIuhZagHnma34QftD/x+vULmjTXKozG+py9T3hr4D5yZs/bjVab5QoqopYDUqwHQXv4WvzEo9kY8YftkdWDMoAFuDDNofDvcZN3PwjZmqEELlKg/eJIJt1At84JXvhd4nalVdgmdMuUAGxzG2ozX0PjCbxN+jtUITOHCgWOWxF7kZr8A3PlKepgLYnseRcC37BIYeyn5T5RwN8T2P2e0Nx+ypJv/ALb+8G63jBuzIpYAMVBIAsASL24mant1eyxYccCUf2NmH/T85uk1vfKhdEf7rFT5ML/VfnIt9KPb1bPXqEagELfloLfUGTNpVv0h8OnG6rm8Cx7/ALBZhszBZ8LiG53Fv/r7x97kT7ulQzVs3JFJ9T3R8i0rK72rtGsjBKNEtw75VitzwAtYepMg0dvVlqinWRdSAcvEX4G4Yg8eEhbx13NcpULCmCtgPu6XYDgT8Wp6WkGsU7ZDTVlS6Fc3Ei9i2p4XB9oW1O21/rf4qf0WNrf67+Ol9EjbR/43+Kn9Fnza5/47+Ol9EhFvtbbjJUFKkoZ7gG/C54KBca6jW888PtuotUUq6Kt7C68r8CdSCPpKrb+FKYgswJRmDXHMaZlB5Nx+UwoJSeoqUqVRwbas9iOpNgQAIXdYbWqVDiLuoVwVso4EA93mePnN12fUqMgNUBH1uBw4m3M8rc5qm811xIcjSyEeNjr9JtezsWKqB1BAN9Da+hI5eUE9pcREjRERA+TCo4AJJAAFyTwA6z5VqBVLMQAASSeAA4mc/wB4d4GrEpTutMehbxPQdB/YsiWvfeLeLtLohsg4nhm8T4eHv0GoPmqnTRRxJ5z27Mvx0T5t+QkPaWKsMiacmt/L+cvpPbwxNUE5E+AcT949fylyT2VIDmBw8f8AybSq2bQu635d4+Q1/KbTsLZ5xGIW47iEM3p8I99fSSxW0bk7I7CgGYd9+8x8+U8t/KSvhxTyB6lV1p07jQMbtmPgFVj5gTaFFtJFx+CWqFDfZZWU8ww1BB5GRWhDeHE4N+wxFN69NlPeU5nC/atf4rXvlJOnMWM3WjlfDA0CrK6fq2tcajukjw0004W0kfbGye3q0WNgtJi/DUkqyWJ+7Zjpz06aytibPGHorSBuFLW/iZmt5XY2HISohbP2AtMUBcnsc5FzclmuLnyDOABYDMbDQWvGUEWIBHQ6zOJFedOkq/CoXyAH0lHtzYbV3DK6qAoWxB6seXnL+IHmtIA3sL2te2vvIm2MUlKjUrVFzpTRnKgAkhRc2DWF/WWEg7WwIr0alEllFRGQstrgMLEi+l4FLh96qTZM9F6KOtRg1RqVglNVdmstRjls3IaW1tpecd4MIVz9vSKhit7g94DOR10XveWshY3c2g6U0UmkEpV6dqaqobtkVHcjL8dlBv143njW3LpsCO2rKGfOVGUqf1S0bFSpBsFuCb2JJHheJ1bDbuFZ1p9tSLtkyrmBvnXMhHI5lNx1vPD/ADLh7otKolXNVWmcjpZSyuwY3YXU5G4XvrbgbQKO49JWQ9pUbI2GNjlsf0ei1FQbL9pXJNufC0zw+5yotJP0iuVoujUwcgyqiOipdUBOlQnMdbgerh1IxO8uEIQhlr5qlKl3MrFTVYrTc5iO4SD3hfgbXmWL3nppiVwoSo72QsVyZVDmy6M4ZuFzlVrCV+F3FpoQTWrMQ2Hclsl2agzOtyFuS2bvE3J6yZtjdSniay1XqVLKUOQBCAUOYZWKF0BPEKwvHDr02hvPhqaVKgYVTStmWnlLauKZIuQCAxsTfSxHHSY4beai/wClPkZVwubO/dObKGL5QDewynja8rzuBQyVEFSoFdSq6JmRTVWqQGyZj3lA1J08dZd4TYi00xCq9QfpFSpULAgMrOADlNuVha9/WOHUTZu9dGrSNZg1BAyqDUK2YsLgKUdgT1XiLG4k6ntrDvotWm1+zIsQbiobUyOoJBsfA9JQ4bcOkl2WrUFXtKdQVAtNcrUwyr3FQIbh3uSLkm8k4TcnD0zQINQijTenYt8QfOSzWHxA1KhFrAZz0EcOp43jwgRn/SKIRSAWzAL3gxU+RCtY8DlNphi94cPTWqVdHamjMyKyhiEsGF2IXS4BudLi9pW4TcakgT9ZUbI9B1JWmDaiWKKSqAsDmNyddNLa3VdxaLGr33C1BWFrJdDVILkMUzHhoCbC546Rw6ssTvBhcwRnVmGYsLBgmVO0cseC5VsTrfUTxq704QGmA4q9o/ZgoAwU5c921uFsRa1/iHiRRncyu1eqWqUxSq9srMMrVOzqUzTAUNSujgBLsHIOX4dbS1Tc9FZXWtVVlq0qoNkOtOj2GWxXgyced+EcOrnBbQoViDTdKhKh7rY90syhvLMjDzU9JOyC97C/W0oN09hthlqs4QVK1RnK02LKikkrTUsqkgFmPAasZsUisHUEWIBHQz4lJRwUDyFvpPSIHm9MNoQCPEX+s+ogAsAAPCZxAREQERECJtPC9pSZL2zC15oW0N3KlJczAOL8tZ0efIHG9oVHRe6rEnmATbx85T0cK5N8jexndamDRuKKfQTFdnUhwpr7Sppy/YuwqzqWVDqQLnp/f0nRNgbKGHp2OrHUn8JaIgAsBYeEyi0k0+xESKREQEREBERAREQEREBERAREQEREBERAREQEREBERAREQERED//Z;" vertex="1" parent="bcFrRtoI7LXR-CrgGl4P-4">
          <mxGeometry x="110" y="90" width="140" height="70" as="geometry" />
        </mxCell>
        <mxCell id="bcFrRtoI7LXR-CrgGl4P-7" value="" style="rounded=0;whiteSpace=wrap;html=1;" vertex="1" parent="1">
          <mxGeometry x="480" y="100.5" width="280" height="170" as="geometry" />
        </mxCell>
        <mxCell id="bcFrRtoI7LXR-CrgGl4P-9" value="&lt;font style=&quot;font-size: 16px;&quot;&gt;Server&lt;/font&gt;" style="text;html=1;strokeColor=none;fillColor=none;align=center;verticalAlign=middle;whiteSpace=wrap;rounded=0;" vertex="1" parent="1">
          <mxGeometry x="480" y="100.5" width="70" height="29.5" as="geometry" />
        </mxCell>
        <mxCell id="bcFrRtoI7LXR-CrgGl4P-10" value="" style="shape=flexArrow;endArrow=classic;html=1;rounded=0;exitX=1;exitY=0.5;exitDx=0;exitDy=0;entryX=0;entryY=0.5;entryDx=0;entryDy=0;" edge="1" parent="1" source="bcFrRtoI7LXR-CrgGl4P-1" target="bcFrRtoI7LXR-CrgGl4P-7">
          <mxGeometry width="50" height="50" relative="1" as="geometry">
            <mxPoint x="430" y="210" as="sourcePoint" />
            <mxPoint x="480" y="160" as="targetPoint" />
          </mxGeometry>
        </mxCell>
        <mxCell id="bcFrRtoI7LXR-CrgGl4P-11" value="" style="shape=image;html=1;verticalAlign=top;verticalLabelPosition=bottom;labelBackgroundColor=#ffffff;imageAspect=0;aspect=fixed;image=https://cdn1.iconfinder.com/data/icons/fruit-136/64/Fruit_iconfree_Filled_Outline_raspberry-healthy-organic-food-fruit_icon-128.png" vertex="1" parent="1">
          <mxGeometry x="540" y="100" width="39.5" height="39.5" as="geometry" />
        </mxCell>
        <mxCell id="bcFrRtoI7LXR-CrgGl4P-12" value="" style="shape=image;imageAspect=0;aspect=fixed;verticalLabelPosition=bottom;verticalAlign=top;image=data:image/png,iVBORw0KGgoAAAANSUhEUgAAAOEAAADhCAMAAAAJbSJIAAAAgVBMVEX3kxr////3jwD2igD3jQD2iQD3khX3kQ795M794cn+7d/82r3+7+L5sWv//vz+9ez7zaT4oEH6vIP5rWL81bP70Kr3lR/+8uf5sm75rF/6xJL83cL5r2f5t3j/+/f4nj33mSv7yJv96df6u4H4pU/6wIr4qFf6xZX4mzP2gwD817ccn9V7AAAOoklEQVR4nNWda3f6KBDGEyDg/VarVmvUVlv//f4fcEO8kmQIYQZ1nxd7zu7Zan6GgWGYGaI4uNJO+293WH/+jI/bWRTNZtvj+KO/Xo7+2r00/NdHIT+81/1dbBgXQjCmlJTRWVIqpRgTgnM1Xu9W85APEYpw/jcZCy6YumIBUioDZftDdxjoSUIQzqcLpeFq2AxOJrhcT0NQkhO2JzMuat9claQSfHtoUz8QKeGg289MzofuSpkZZ787oHwoQsJVP3t5CLqLslfZX9E9FhVhZ8JI8C6QbNIhejIawumYMzK8kxjfTEmejYBwuBSEr+8mKcSBYHJFE/bW5K/vJsYX6MGKJOy8BeTTUvzn64mEvY8kxPAsMaLeI4JwuODh+U6MnwjP1ZtwcAg8Pk3Gb+9diC/hlD2OT4uJ94cSdjbioXxa4ug35XgRTh5kgKYkX/s4rB6ELfX4F3gSYx7+anPCNcdsHnCSvN/4NTYl/IoeO8MUxVQrLOEyed4LPEkmh4CE6fhZFngvsWnkjzchbDUKvYSTEk1CHQ0Id08foVclyxCEn68wQi8SH+SE6ea5c2hR7OjqqDoS9l7EBG9SzHFP5UbYEi9jgldJ7jbfOBH+Jc/GqVTiFKpyIRy9JmCGOKIh3PFnk4DivxSEy9cFzBDrF8ZawpcGdEGsI/x9bcAMcYcjHL06YIZYM93YCV90mTCV/PkTtv8PgBmidem3EXaIh6jCnZ7CEj0/wpT4edS+ddjwEJSSWdxwC+GR2NlmenlO24cxPaXa+BC+UW+XxCWGlFFuiHfT7LM54ZJ8wyuMQOCWFlHsmhLST6Nqf//5g9ssRoOaQFFGgHBIH7Jghpfcvn6BHCfNsouqBc42AOGYfksvjB95ebFyeYwH7eVYoCnVuAnhIUDUyTTD60/IJvm/pxklco4V1U54JWErgC9jmmF6NUPRvf3H9nKDQUwqj9+qCAdeaWk1gswwMQLYn5ihKitfV9V/XIQIHEJmuDW+GvfNbO1G2A6yY0qM7yia4VlfyK/mFUtGmXAQxD12MMNMI+QMJ6UL4RoxUiSYWQqZITfM8AO7SIlJXFSJEDNQ5LGrs4OrKN3MEL9I8VIkvER4RIzR3Kjm07UsU3JgNfym+nXPKu8yioTvmJ/xalTz6cLMhS44pUnpL3JhzTD/xGIgvEA4QH2HYVTZu1TXpOEHmWGk/VM74QSzIGUuZkHz6QfL3+UjVsOzROGc3yScowzBNKqLOu/ZiE0eZIZa5rgoEPZRw8Q0qnsNjUyfVFT/BYUZZmILmLCD87i5Y45ESDPUSozQm0H4g/qKglHBOiRntymEGWZSbxAh8hVWm2GFsll2m+/rg5hhpuR+2b8nRI4S2AwrlK4OY/EvhBlGhZd4R9jDOvZNSwfSlRFaeaOLnPA7S7wjxLjcUQMzhEQYObnfKN4Ih8hXKPctVEUonRlGxni6ES6xU5kUfHNYeVe5kCaVsVtU6kZIMUgkE/w48SshHI6OhNn/N+/0SjilMgNdQuhZO9CZCKrUJHE9Nr0SksaAmWiayXvWYLqlyZK/xYcvhMSnoTKxHVpatdqQJJJfN/sXwgNxBNHc8jZkPBJYDLtsoi6E5EHgBFM6+C7QP/h1J3wmbNOfFqKKstM+2mrEyiBckJ81NfJSK9TF1qWqvkFIH+Yuh/VOcq6zGx6RI5XfE67IB6lU1c/99W+2eHfM7v3BPdV5FJ0I6QfpZYwUNRK6dQL/GLlQfqAQz49wIqQ/bILKBc970IxSrVe1NUx71IOJG2GL/sgXMsPbN2nvblHn+qAyNk7TeU5IvdxbzNCc0hTf2nO1UeHN08ldTog5q6gWbIaF/1EKaWXcIYbXaU+uCbF73wrVmKHxHGJj82FniF8/3wdrwr/HmWGlOajEUsWM2dXlpzSaEBmgqfzs6seFIhXcUlOIeDi1PhNiBgLw0a5meJGlrABxWJTPd9GzzfAsMC0NtZRpQ4xCuGzNzDCXnEGEA0QkXjtuEUGQrSy31dB8GDAfHbHq621whD2PqVJjM4yKxyn3QsTCdaQheqRTan1WYPrFTfVMEwaYaOqd0qo/giKQGJ+S9zJC+gBGVEwWOMsetw9CKFYZId2h1kUKSCu3f1NS/UfZKEXME2KXEdJ7NF5mCB9dYWZCtcgI6ROem6+Gke0EGeNyyXFGKMl9NmBWtIfVwbplzIqvp4RoQD6Vepkh7NN84dK00gh7tl2W2FXHX6xmyMHeOriZkPci+hgNZIa2QyVRlb98Es7lEu2oS04IrIbpUpeOVBq95Ivqv4nvE6i8JP4i8uUQMsNMg/ZhI0Qx91QKZgnVIE9u2Sj6JS9RszdWS1u7t9mlPbTS/aA3I1vcFLmYsWX0Tb0cQmZoYH51R4f1or8+jGpSG1rIiVCtI/KAPmCGntqgT6Aiwkyk00eC+zwfoZKy88f5iPbELo13f8Mq4YsE5T5C1VJVyMUMXTXYogeYPEZbAqp7gVt1D2GNUGsbzfAfci/LathUQ5Ji8hk1IZ0Zog/yTyInpDLDzg/RjoCcEHJKm/Gtfsg6pFITQqvh6N/PzjX9NHt9hB3QZ8RzqQCaxXxqF9Q1/bSzJ9yzbiPa8197pDRPPz04pC3+kb1EuSH2aQAzvAvRaMr6GyzSPdGmLvNpqApVckFmWHAvlUMWxjfNSFVvEa7UqSDYDEvfzLc1KydNmzi1iDAR5ZKaREqlgPuR5CLpwqW+I9LTw4aRUmv4Io4nFIm0v9GIkNDRDG+SfG9bJAnC8WIUUaaauJvhVcqW805w8Ce6EeXhGgc631uHia3d2i/64USLNOZdvxpWKYFbyeMKr7V4L0rpCBub4VkJnDeMzinkg4jwGB8yw7olF+oOVP/6ayWlPj8kc9sgM6wdapaOwMgqCaXPD+kCpn5mqJ8D7s6NfDq2zggxGZxOz+kQ84TDV8hjlcxwIkzSlzIadEEhGgfPl4MZpsijsTwXw3+5UJ9fv+PrdYAKam7nMJXByz7yeJMPUTlRec8i3QSRZ5giAuZ8l+lQgJfk4M64TzlR8d7TmG+NPtL2aAl6Ji5HDxxcEXGE57w231UVziY05LIBhWcanFOpy4Ejb2MuNYIB5LCiqR/wr3EbA12/FnnXNDCHfuixoxnC28QdyuU65wh7+g2OLRQczBAqP9FCrfh5kk6eq+/zKQpOnzDkshpaDBqVZc8uufpe6Q6QE1rUv9qGlsLyW6WolK98LtSEPoZo2Q+YGna/7VcgcyBlOhfOpbnWzPjkijcqgp1P17Pqa6ylsB/HoVJDTwt2Tti8aKOqQaFdw+5yz7Xzc71jXZdaql/7cQ1q83QqWM8Jmy+rNaFOSPP26PvjqCsPhVDHxajOlnFe6cnbPbnLjT+I4a7OTtPU6QNw4eq7GtLmXcy2O8/GF42Ey9o7r2cnwuZTFhN8/9sivQS9LNz216jl9koU1ml3YSlxQRqjHt+72V5QSlzK18XpOhNi6tcyyiQEJbLdb6EvRoxsHpy/yx3yBu2CvlHbimJvE1xbzzOl4OID1dHEEDKztNSfhqjHEEd2NLkJe0NKqccQUelM4757oJDPU+4TRVOyju67d9Ub8nFuYYNbkJPihKbQYf3f27tnQyxk45b72BZhz72o3FM2m3zkYtr4cnv8laCVPfcoakmTck9ZvUeSLvcU3kSQd1nZN5GgEBHqsN4o6bRHkHd5H0Qi7F8Kt3aGD15K+nqjyLu8z+u5P05BFyYArZ0L0cKP3y6QWPS1pOkpaJzzEfYRBls7m4HHeZLtvJLoZ7L7a3fm+U44HXba08Oe7C4vsI8wtpFwwQxvd1gYZniKXUrtyQqulf8Tf1fQTeYhgUHYo2wGDZkhaSJdpYxXWOjJjrthxs0M6XvFFFQoiDAJcWsiZIZGyBfXut/pMUwPo3A0jbnKym01DNCyyRQrXMRSvN8CMZu9iBmKQrChmF6AKEqFLjowT1JDm2HJfyolUPhXU72EGZZvESkRem/2Cz0DADMkazkNqHzoV06C8c09ZkZHMtAMQ9x4dvcQ5br+ijQf30YZs8XdfhdaDem7cNxLVpynVBB6B7mynSC7UD7HDKt6T1SlamFGkj4T7GeUT1kNWdV5efWVgaihlJ98Xj/hgWYoVVXcvZLwi+4Oy8JhcdDVsLpvX3VCIT5H/iK5v/cSg5ph8SorKyFhayWp7fKynQlphtDN1QAh5a3j2i7FiTKkGQog3A6lvVJfJ6tnn88p8VXV90qgMyHwXm6y9O+bFNX1HBUCLgO2EcafYf0rWjG43whMSNKz4UFSpR2FEyHlbBNW4K3jNYRxL3TAgUrWRg42wrgd4H7uAAKn0XrC+O//gJjYG9fbCWmqjcOK1xzd1RAS1YwHlKUTuBthvHxtRA6u9M6Er41YD+hAGP++LiLf1T++A2E8etUZNXHJD3AhjKeviWirc29IGLdJLnujlXS8FcyNMO7QndASSTHH9AdHwjjF3qBFLLZxba7lSoi9XopYwr3xnTthvHyZ+UYmO/fHbkAYtwmbjGGkWJNSiCaE8XDzCiNVjBv1t2tEqK9Ff/ayIZN6Rw1DGLfUc+dUFjVNl29KGA/6T1z9JYc7m5MRxvGKPes1MuVRCuBBGA/WT3mNioMXRFATxvEXxY29DSU2fq1R/QhJbuxtJGap2Q9DGKffZE1UHfj4wbusypswjuefyWMYVbJAFKogCPNuseEZVfKB6k2MIsymnNCMjL8hey8jCbP3uODh5hzG19630JMRZv74UgTZdCghlgSFYgSEmaZjTn0Ux/jYd30wRUOYDdYJI3yRSrAJ1Q0EVISZVn2aPtxK8E+4WWRjERJmDmt3IXBVIbqhxGdtp+hGIiXUah221mYt9pe3ndAVEp9FTphpCDZrgeFYnrnZuFLRQSEItXSzFsazZaSOU5cHcTE+/IWg0wpFmGu+2q3HKi9q0pc73fKDpb7qKS98YpvFboVe1W0KSnhS2mv9jX7X/Y/xcTubzaLZ9jj+6a+Xunat4a0QPvoPgbbKKNns+28AAAAASUVORK5CYII=;base64,iVBORw0KGgoAAAANSUhEUgAAAOEAAADhCAMAAAAJbSJIAAAA81BMVEX///80erT/yh0nXIe/mBb/zB0jWoa9lhbDmxa7kQC+lg3KqkRQd5opYI0pYI7MohfarRk2ZY32+fv7+fLCnR707ts8bJLNsGK9lQC6jwBihKPIqEv/yAAATH0ZVYMxc6rY4ukubJ/uvRv2wxzs8PTktRrv8/Yvb6MndLEASnwLUYCXrMDhsxrU3OSvwM/H0t1xj6uKorh6lrCjtsfeypX59enp3La8ytfy69bYwojOsmbh0KHWvXrr4MH/5J3/6a10oMmdu9eUtdRhlMKvx95NiLyFq8/HpDPcyZHLq0f/0kj/7sH/4Iv/8c3/12P/9t7/34Wc3bx/AAANpElEQVR4nO2dd3faSBeHKbIoBlMNAoMMRsaJiAvYuOJNNpssjrNJ3u//aV4VpqnODMIz+PD7b8MeHT2+Zdqdq1Rqp5122mmnnSRRfWwYA0uGYYzrol8mKY2N87vr6axbatX0/sc+JjNbK3WvppOLy4GxnbjG+cW0W6qZlnRdtZQlpWatf9N13TT7eqt0Nbk7H4t+ZQYZF7NW1iLzYQXLQTXNbGlyLvrNaVS/u1L7FhwVm4dU7+tTySEtPN3UOeCg9H7pTjRFuMaT2np4riVNWRnrU53LNwMZDdE0AbrLrm8+jPFaNI9X9ZkZaj/nh3L5wNIQyP6PcjkKsSvX4FFvBRnQQitbUGfH6VAdH59ZuODPgEuvyeSpRs1vQIvtOALNR+pwEn8fVZ6Bw2fB8vCMmg3HJCFVXRrEK53EozedT0PSipI46kUfe6sDB++DrfUZ1ZoUc/I6FoNlly/95e9vX/9JczIeoAfqV6LpbE1M+EJD9xW/uX954+v6ZjQvBNNZqsM8qjqAH76j4LnkRDxDfpoVPyxemARgOo2HDi/iMfLTmTAyoC5IpGXn3T6QGZ7XUc9gLH4UnU9RnnHHiC+en/kArVhUZTHipUma0Lvw+cJpxDQa/QVH4jUgHLqEXp/6xksIQ1F0OoXzmdVExvsH5801yIhqVwgYVAvESzppQmBEtSbWTcGy0A3DBL00nQbLR1PsBBzMSQ9WhN88v3NnGjS10YWu9w0v4T/k72NuPuSm+lQMm6sBIByuXuvDJfH7v/wmTKelSDUD00NIRuIaUZiGgaiWhOGlggjT6QH8dT1ASNgShpcKJvzw1TXjYI0sIzehtcL//uXfL995V/lbQOhArkknPWEi2hG+LWG2TK0D2t1GyQhZRGnwLSbM0llxmwnpjLjNhOXtIax/5CI82B5CtJn4bgnHNVOl1zYSpurTUotaW0nIonFtR7gjlF3vn7AuO+H53WTW7ZbWkMS5tH4+qfVBLSy/pCUcTLP9hKrypCS87CZQUykx4aAUXpPHLYnWFvVZP3k+mWx4XkvaP11Js8a/3oCD2hpSAfoIb9tHfrUfX57veQFnfAv4OB3QFi56CNsFreiX5ujxmQfwigRU2SpGExBJeFNQwqUV8jeNtQDV7Do1lYkQNosRhDZk84kNcEpYcPjmeD7CTjSgohS1/TkD4MVH0XzMhDYjfTgOsGGw/Pb+yUmoFAvUnlqCgCrd6CwHoaLQIqKqWFBTKS1hzhKBeEsDaKCZjDgLhhDmKnu4MpnRaTWPMRY1mvEfFd+LBAwlzBCyMU8qiLG4jB8YB6j4XiQgJaFLeYoQtQW9CVVRWZSV0GIcIVctxPmpAefbQn2UjRBHLO7HEE51KXyUkdBGhH4anU/rsGR0uFWEmb0TaMRlJCGs3BZtQlbCzF4VIEYPitBJBUchO2EmA/w0OhKhk4pNpDyEaMzoRKRTWBMr3Ek91Zc0NsxUQK55DCe82GSVE5vAqNylJkRG1MInNrNVGKpc10CTFKyCntHbEEZixIBRkyYMwQ02fUJPCNOp1g4DHIO1Pd229CYFrpSYdwyEoxVhsRnmpnA0FD5WgDDMmgaDl+4BNy2EbWhMwGg4FA0InBRsl1ISQjd9CCHsShOGwElX1y0aq+3SXDWaELpp2KBf89xjEiZ4U3Z1KeiejhBl00JwIBoAUHiiKXuc9BYQfoomhG4aMjc9l2W8h/e5QZeTJ21FeBpDeBodiHBGI3i8R7e59dWbHa029XMnMYQwEIOXUFPPhUlBQne5YaOalQkVZRQThygQAwm7UiQa7D5+a3X5/RkQRg8WthHB7Dt4u6YkAyHeUwFchXsEYRiXSjN7n0AgBm1/w7Isgan0uIyOTExw9XAOfDQuDLHNjMAVlCF8zkb0qNHhvbwbGIYxfHaqUSJSje/C5BvjDYnWUeiOc6Op0DopNjVVAsb8y2SGw2O71ZXT+ope/r5YahZe1lxo1E5qpxrgpgGpBgyHayx/PXbgF9YK6xCeO8Vm0gyWaoKWF9drDoeJ4VmALXTddgmO8OMmNC4hTDUvfsLJWoTH3nZd/FL7WMMP6KNKPp4Pm9UEJVM4peEBTI7P8lCsgwgqM6GJQhsRzNuOEiUcRr4yk0x1irXxeUKANFGYQck06CQREKrMgOWE6sNU1eLDL7wjQCUXOyVdEYJ5W95ffcJrw2P/mzqtZRlld6Lt3hEdzBYYIE2acQjhEjGckNGGXg+13lTN1ljVKs2uPU0+5vsaAqQY7FeEcLjwD4h8NiQBdbN8dX05MMZ1NvmzgrXqRZVeuQolH7YIDhgQuQiJLnl6/+oyoUZ5t0tkQCumKIMwgw+I/tUFz3g4JOw3S6g11/ymqRGlevSAGOGN77kcc5ozDNDsDnyPbDBrfn/7sCwQfDkGC+JDvn9Swz4vxbKo6m2VM39+ePyxbDIqrxU00nyMgBihfzOKfW2B5qF6ljDg/GnfedWYqlAaWUmGBTCSkHl9iIJQb+EJ5r7d0RJgc/jidkj9iiA0wM0YyjU+1t+whAHOHwta9GszAFaYPDSOcFwjW3fFCU621RbWcuypmBxf/nSPGTCKkHGvDdvWRDHYOCok5J9KTvnEFoGuouKQcb8UmrCPFjuHWjIGzOWUCo/94giZ9ryhCbFmuM/rJxi7JjaXr5yO+PiiR3y2cwu05DVCAJ1XZVb108nIKRvlVNSsje3sCZpwgly0iOM5duATL51DCI+fAg7YWM4P4TE07Ek9z2NrAaU6WvNNuQkjVk9MZ8CeY2hLbWw1V+EOo/UJI1bATOf4vpHiiViPi+LDdjG0IMJr6lqMYxUM9sBHkQXZZsqJE67eIrimnb6eBjbfBHkG81GhgJkM2E0MrIuqU9dEAUJwxHdYkAQQDRbBRfvUdW0g0fTHHhNS74ltijDyiJShNhGsDMsrE0JA6j2xTRFGH3PT15d6uou+0JcSbFpR54cprEY4LhCzJOF+URYTnsTVfdHWeQPCLplncmL58DAMq92bUo6IJCEsWaI8PdkgIQzDsPpL2vsWJOGCsihr84CgUEHphACiT3LEZFOSEIah6DwDFxbFH2GEcLyIyTUkIcikVKe0GyWEk9Lw+7LITSNzDUHYALUEosMQ7mAELyxWqlHdziMI56BGWfhYcRpxxA0Fv1kRuZdBEB7SVvBunDAf76TEF5y2jRA5aeDaEGpCc9NZTsIqjZOmUmP4sb6I6/hSEmaonDSFTb8jZjYyElLd7HKFdY0IQ5SREJkw4naeK+xKfhiihIToJnDshXXie3EhzU1kJIS3ZKOvOrsiGgQHtXaSjxBFIVX7j3ELr+NSywdnniZR0hHuZRRoQqqeUYb3+67BlWsSEaLL6pRNagyVph2dNITIR8NvV/oQSxQN22QhRHmUsgmPo/qsvy2EGCBVIoW6i23sKQXhHtx+ohsLCTPGfTHdPVsTR+gcp55gfZSC6tejZUxrZgSke7bGTJjUH2I0Gp0QfaK06EVFiB0vZ7W+qQc1Edb77vcXGQn3MtV8QlLIXl/FgMpnSkveXU+vfH2gu9NBiocwg//Vk1RRO+QEjBMbIRqbkwbMc7cyTZgwH/2ivNKWm7Igs5duhK/YaTO3MN0mwqLWpJ/KbB9hUSssnzZowDUIAxoDM0rTtEKhuXjeLB83YfPH/po6ai+ebnmHwM0TxmxqSqUd4Y5Qfu0IgwmV5mObVouNzTg3Sqho9Cowr2ylIGRRh+vrANtEKDZqGVdPXIRKfosI+daH2hYR8q3xt4gwk6nwIG4Tob3XlqPWNhK6G7m0qmwlIYNQEdB7Jcy8J8KerXdM2Hv96+evn/+NPIySeOn6tYm911+rh332/AIIhc5pKPunRgH+RrtlfwIJi02BgKkUKNXnrqB9xZ82xxwVdZgLL2t+C8EvavGa8A/xuM8IMe4a01upTdleNAzwt+d56Cmo9zHjV8cS1gt1b8pgwp+e5/2HjBjbv/pt9AzvzHBdR+h5t61/AkJUZCF0sLCSKeiLx3dppud93i9ICEfD0D7ybySm5o30hIzVeJvU/Vp3ZD2pFCZTdMeHvpRrYzrCuhsyI/b+8jztd88FRN//EbuZaAu14MxxIO6RD/vjBSzmhZsQb1HJ2NcpwIiOCTFA6oLKjaqBfSmUveMAMSL+1fN+S03sjA0ISzYcXSN6n8FzGv/rWXwj/Ht40Tdg3k5Y2wi78wdjNPZ+/7Q5/nx+7Vl8VbyYS/B0BtMD/s1eh5EJspd5fX3NOHwKvt0oRRCu9EJ8ljiXq56wdnBxv9dIfnhTIkB04xky5qsjaks6paJVT1VfMeZLeG8uX6MoG/JkFNs3yP4fRqeVfM6zG65trhiPV/N93we07b5dK8oATvef7Q+mKl48pVg4kiSLEroJamiWczBPRyNyv9siHJ18qla8H71dGbAoVQgizdshTemcPmX5SqW6UqVSyfu+6Iv4tIWMBnT1fNSJ6tvmO3QJ4uscSReBhJ6PvF1IWVTUtPbmqmGT0uGiydcC066lvJHXP3E1bh81VkgLr7mQZpJGocbtQuvQ+qvlm53mg9zRF6j7p3ZTK0RTWnAFbfn4JqWim9H97eLIxvR1FnarfLVl++F5e+mAGvPnp4dHG7TQKVjqdApaftlevNzezyXYo0hUjfnh4f3h/N1x7bTTTjvttNX6P5DhGpVdY9bHAAAAAElFTkSuQmCC;base64,/9j/4AAQSkZJRgABAQAAAQABAAD/2wCEAAoHCBcWFRgWFhYWFRgZGhkcHBkZGR8cHB4YHxwZHBoZIx8eIC4lHR8rHxkYJjgmKy8xNTc1HCQ7QDszQC40NTEBDAwMEA8QHhISHzQrISExNDQ0NDQxNDQ0NDQ0ND00NDQxNDQ0NDU0NDQ0ND00ND80NDE0NDQ0ND00NDQ0NDQ0NP/AABEIAJ8BPgMBIgACEQEDEQH/xAAbAAEAAgMBAQAAAAAAAAAAAAAABAUCBgcDAf/EAEMQAAIBAgMFBgMECAQFBQAAAAECAAMRBBIhBQYxQVETImFxgZEyobFCUsHRFCNicoKy4fAVFjSSJDOi0vEHQ3ODwv/EABoBAQEBAQEBAQAAAAAAAAAAAAABAgQFAwb/xAAhEQEBAAMAAgIDAQEAAAAAAAAAAQIRIQMxBFESQWEiBf/aAAwDAQACEQMRAD8A7NERAREQEREBPOo4UEkgAAkkmwAHEk8hPSaVv3vBVw5poqIyVFbOWBN+WTQ2Ghvz/MNuwuKSouZHVx1Vgw9xPacS2PtapRcvQJXqh7wK9CPtAa68R4Tp27281LEjL8FQDVCePUqftD5jmJbElbBERIpERAREQEREBERAREQEREBERAREQEREBERAREQERPhgYlpF/wARpXt2iX/eH5zVNs7SaqxUGyA2A5G32j18J6rsQlcwYEkFlA5qACLA2NyT6Ty8vnZZZXHxY7k/e3bPiTGS+TLVrcQYvNN2LtE0nCMTlJsVP2Te1/DXiJuQM6/jfInnx3OWe4+Hn8N8OWr2X1WURE6XxIiICIiB8M5htqvULPTr3dSxNm4jXQqfs+XCdOdrAnpOYbS209Ula9NcwJAZAVI9yQw9pYlajiMO1Nri9r91h/ehk/B4hahFz2dUG6uulzyOnBvK0ltla44joZU4zAFe8uq9OY/MSsuibE3rZbU8XpyFYfCegb7p8fe3GborAgEG4OoInFNm7Vv3KhvyDH6N+c2rY21Xw5st2pc6ZPw+Kn7P7vA+HGRZft0SJFwONSqodDccxzB6EcjJUjRERAREQEREBERAREQEREBERAREQEREBERATCpwI52MziKOb0aJYhbgHqxsAR1Jm2Gh+uQGkSqKAtTMQF06XseQkPbWxGLF6QvfUr48yL8b9JV1Wrt3StS9yTZWBJJF72GvAT8/hL8a5Y5Y23e5f1Xr52eeTKZSc7/HhjCWqvqCSxFxwJuQLTf1Gk1zYuxGBFSppbUL48ifLpNlnd/z/DlhMvJnNXL9OT5vkxzuOOPfxG4Gangd5GVilcZrEjMBZh5jgR/esnb6Yaq+EcUHdKgKspVip7rBrXGutpyf/Nla9q6rUZdC1sj6cmto3tfxnpybcVunccPiVdQyMGB5j6eB8J7zlmwdr5zfD1Mr80JCv/tbRx5Xm1YfeOoulakbfeUW+R0PoRIraYkLB7Sp1fgcE9OB9jrJsBNB3xCrWAVFAZbk9WufThb3m/SFtDZyVls636HmISuW9mjfsnwg4ZhwIb5GZ71KuDrrTN2VlzBhyFyLW9J44bFhhdGDD+/aaZ0r8ds6/eUZT04A+XjMdnbSKHI98o08V/MS8SqG0+RkXHbMVxcaNyP4QJ+H2i1Jlem3LzVl6HqJvexNuJiBYd1wLsp6cLg8xeckwxalnV7gAXHQ8jb1tJu6G0GGOpt98lGH7LA6ehAPpFWV2aIiZaIiICIiAiIgIiICIiAiIgIiICIiAiIgIiICfLT7ED5PsRAq9v13SiWQ2IIubA6c9CJzLbey0xBLkBHP2lGh815zrzoCCCLg8ROP72bUbDYp6S01yDKUuxuVKi5/3Zh6SxK1bGbHq09SuYDXMmo8+o9pbbG30r0bK57dOjnvgeD8/wCK/pPShvQh+NHXyIYfgZnWfCV+LKrH7XwN7kAH1vNb+019Nv2VtrC4m2QqH+44Cvfw+9/CTNhoYhl4MxHRjm+Z73znH8Tu4471JxUHEagN4WPA+eku9hb1OhFHElkPBXYfJr/ze/WZs+iX7dMq7ZyC7U3Yc+zsxHjlJBI8rnwn3BbxYarolZL/AHWOVr9LNYn0lKmLPQHylbtbZVKvdv8Alv8AeAuD+8Bx8+Mksau1pv8A7DWvQarrmpKzaC5KgXIA53twnHqFQg5kYg+E2epUxGGOUOyqeSsSjDyOh9ReazjKBDFk01uQBb2HTwl1pne1thdscqgt+0OHqOUuaOJ0BBDA+N/nNMpVgfAyTh67IbqbdRyPmJdml9t6qCiAfeJ9h/Weu4NDPjqf7Ad/+nL/APqUuJxmcLcWIvfpy/KbR/6Wlf0qpc97siV8sy5vqsUjrMSu2rtalQW9RwCfhUasx6Ac/PgOc8Ke3ka2VWN7W4c/WZaXESrwG26NXRXs33H7rX6dD6XlpAREQEREBERAREQEREBERAREQEREBERAREQEREBNb3o3Vp4sAnuuODc5skQORYj/ANOmU2L5Qb2J1uemkg19xaq8LP8AuuB/MBOxYzDCopU3HQjiDyIlFXwlalc27ZRzGjgfQ/Ka3WfxjlT7uVaZvkrJ4qPxUTEs9srOzj7rqr/zC/zm7f5upfcq+y/90wqb00G+Kk7eaofq0bv0is2C9SmuUjufZQk3XyuSQPA+lpbvtGwvkPv/AEkT/EKNTVErL42XL83+kjUcWj6A69DoT+czcWpU2rtGm6lXRiDyNj+M1fa2ERWuhYqfssNR6jiJaVUyk/3pKivUzMT7eU1MYlqor4YNqND9Z4o5Gje/OWz07+ci1qN+Oh6yWaN7ZUaeZT8pI2HiqlCqKyEKyhlFxe4ZSOHrceIEradK5seAnStlMKlCmzAN3ADcA6r3T8wYuWiTbWaVR6jtUqMzNzZjc3/IdOUuNibdpK4pu4uSctgW15g5QbddfGUm9dNkxCCmiMrUwcnZq65gzAnKVIGmXWTNkVGFjVwmEA6ogV/lcfSMu48MeXqyxqK1R8jKyk3uDfjqR73m0bpY4nNSZi2l0zG5sNCNeXA285rlXZ+GcdogZaiKLKXcd0albZrEWvoJJ2dthEt3Cp+8tifn+cxjvX+vb6Za3/n06JEqNk7aStoD3vIj5GW80yREQEREBERAREQEREBERAREQEREBERAREQEREBMWF9JlEDR9o7ih3ZkfKGJNvOUOI2AKD5X7x4i/C34zqsi4zA06os6hvrLupqOW7RqZUsOLd0AdOfy+srKWznbllH7X5cZ0fae7Shb0RYjipPETXa2BqqCTTcW8NJZSxTtQsMjuzjnawsOgJBMlYbZOGfTPURujFfkctjK3E41VJubt0HH+kr620HbRe6PDU+8bTTZ8Tu/QQXesyD9oqPw1lHjFww0R6lQ/uhV9zr8pX1KDhS73AA1LcegHUzNFAGnvE3S6jzFAdZt26+JRKQV72DNYjhY66jjxJmrS92UP1Y8z9YykMa2bamyqOKp5DbT4XX4kPX8weM5dtfYtXD1OzdS2Y9xlBIceHj1XiPYncq+OWlqWKnkB8Rmy7pq2KQVaoGVXORbcSNMxPX4hEuizal3M3EGVa2IGp1CdP6+PtN3G7+HH/tiWoiZtaRMPs6mhuiKp6gSZEQEREBERAREQEREBERAREQEREBERAREQEREBERAREQEREBMWUEWOomUQKPF7s4dyWZAPKcaxG2FSvUNNENLOwTQA5AbAhgOYF/Wdf352j2GCrODZmXIpHHM5y3HiASfSci2Nse9nqDT7KHn4nw8Jqf1mvfH566IVVkQ943Gp6aA8OJv5T22VhEYZCWuOBvxHtylwlMngJhiMMEVqhtdFZtOdgTY+fCNmnimwyxsjEnplv8AO+kkY7ZmKo0wEQOBcsyd5hck/Db5i898BvExRWRKag8rNe/MHvamSP8AMFTonsf+6OnGj2ZmtqzMba8SxNre87lsHAijh6dMfZUX8+ZmpbFwRxVZatSmg7Mg5wpDEjgL373rebrisYlMAuyqOV+J8hxMipUSvwu16NQ2RwTyBupPlmAvLCRSIiAiIgIiICIiAiIgIiQl2lSL9mHGe5GXW9xe44eECbEhYjaNNGCu4VjYgG/Amw+kzxeNSmAXYLfhf+kCVEwRgQCOBFx5TOAiQa206SvkZwH0GXXibW5eIn2rtOkr5GcB7gZdeJtbl4iBNiIgIkStj6atkZ1VtNCddeElwEREBERAREQETBmAFzoBNM3j3jDAohsn2m5t4Dov1+oRN+toJVyIFNRKb5jY6F7FVPA5gLt6nwlDS2kn3HHpeV2IxbO1xoF1HQeJkrDO9RCVsmpFz9QJq89s7WCbQQ8yPNSPwkTb2IBw75CGJAWw1OrAHQeF5jsTZ71az0k7wUXZjoL/APm/tLbEYKn+kUsNWDUVcWUnVTWue6zcyy2y+o5xw60rYTOj5Cj5W/ZOjdfw9pvGy936lUglSqcydNJsY3bFMXRlsBchwOXPMNR7ylxm8WLornp0+2QakPxy8ipUA+jayflaa03nB4VaahFFgJpu8+YYglgStlyjhdbC4B5d7NJewd7nrMqVMP2ZqfC6VA6str5xdRpqNNTre1rkZbcx9RKmWpTR6d7qCujDpmN7MPDp0gvpCpDCu661KHrcX5EOblfUe0t9u7aeg6qoVgUDEsCTe7DkwHKa3iStVwKFJlvplDE3PXwHykzeSkVakpNytFFJ8QWBMG0+tvBWpuBUpqqmxt9rIeBve1/T2lltXadVCFpUme4BzZWK68Bpz9Zre2cYMRUQIrXChcpGua5uP78Z67w1HV1psWCKqAAcGFgGbxN7jXpBtN/x+tTcJWRbG18vEA6XBDEddJJ2ztx6NYIFQpZSbg5rEm9je3AdJrO0OzzA0lZUyixbixBN28uXpLPer/Ur+4n8zQbTG29WFHtCigmoFAKtbIVLXGovqOM9Nmbdeo12ULTVCWYKfiC3Ot9Bx04z13y/5Kf/ACD+V592VQz4LIuhZagHnma34QftD/x+vULmjTXKozG+py9T3hr4D5yZs/bjVab5QoqopYDUqwHQXv4WvzEo9kY8YftkdWDMoAFuDDNofDvcZN3PwjZmqEELlKg/eJIJt1At84JXvhd4nalVdgmdMuUAGxzG2ozX0PjCbxN+jtUITOHCgWOWxF7kZr8A3PlKepgLYnseRcC37BIYeyn5T5RwN8T2P2e0Nx+ypJv/ALb+8G63jBuzIpYAMVBIAsASL24mant1eyxYccCUf2NmH/T85uk1vfKhdEf7rFT5ML/VfnIt9KPb1bPXqEagELfloLfUGTNpVv0h8OnG6rm8Cx7/ALBZhszBZ8LiG53Fv/r7x97kT7ulQzVs3JFJ9T3R8i0rK72rtGsjBKNEtw75VitzwAtYepMg0dvVlqinWRdSAcvEX4G4Yg8eEhbx13NcpULCmCtgPu6XYDgT8Wp6WkGsU7ZDTVlS6Fc3Ei9i2p4XB9oW1O21/rf4qf0WNrf67+Ol9EjbR/43+Kn9Fnza5/47+Ol9EhFvtbbjJUFKkoZ7gG/C54KBca6jW888PtuotUUq6Kt7C68r8CdSCPpKrb+FKYgswJRmDXHMaZlB5Nx+UwoJSeoqUqVRwbas9iOpNgQAIXdYbWqVDiLuoVwVso4EA93mePnN12fUqMgNUBH1uBw4m3M8rc5qm811xIcjSyEeNjr9JtezsWKqB1BAN9Da+hI5eUE9pcREjRERA+TCo4AJJAAFyTwA6z5VqBVLMQAASSeAA4mc/wB4d4GrEpTutMehbxPQdB/YsiWvfeLeLtLohsg4nhm8T4eHv0GoPmqnTRRxJ5z27Mvx0T5t+QkPaWKsMiacmt/L+cvpPbwxNUE5E+AcT949fylyT2VIDmBw8f8AybSq2bQu635d4+Q1/KbTsLZ5xGIW47iEM3p8I99fSSxW0bk7I7CgGYd9+8x8+U8t/KSvhxTyB6lV1p07jQMbtmPgFVj5gTaFFtJFx+CWqFDfZZWU8ww1BB5GRWhDeHE4N+wxFN69NlPeU5nC/atf4rXvlJOnMWM3WjlfDA0CrK6fq2tcajukjw0004W0kfbGye3q0WNgtJi/DUkqyWJ+7Zjpz06aytibPGHorSBuFLW/iZmt5XY2HISohbP2AtMUBcnsc5FzclmuLnyDOABYDMbDQWvGUEWIBHQ6zOJFedOkq/CoXyAH0lHtzYbV3DK6qAoWxB6seXnL+IHmtIA3sL2te2vvIm2MUlKjUrVFzpTRnKgAkhRc2DWF/WWEg7WwIr0alEllFRGQstrgMLEi+l4FLh96qTZM9F6KOtRg1RqVglNVdmstRjls3IaW1tpecd4MIVz9vSKhit7g94DOR10XveWshY3c2g6U0UmkEpV6dqaqobtkVHcjL8dlBv143njW3LpsCO2rKGfOVGUqf1S0bFSpBsFuCb2JJHheJ1bDbuFZ1p9tSLtkyrmBvnXMhHI5lNx1vPD/ADLh7otKolXNVWmcjpZSyuwY3YXU5G4XvrbgbQKO49JWQ9pUbI2GNjlsf0ei1FQbL9pXJNufC0zw+5yotJP0iuVoujUwcgyqiOipdUBOlQnMdbgerh1IxO8uEIQhlr5qlKl3MrFTVYrTc5iO4SD3hfgbXmWL3nppiVwoSo72QsVyZVDmy6M4ZuFzlVrCV+F3FpoQTWrMQ2Hclsl2agzOtyFuS2bvE3J6yZtjdSniay1XqVLKUOQBCAUOYZWKF0BPEKwvHDr02hvPhqaVKgYVTStmWnlLauKZIuQCAxsTfSxHHSY4beai/wClPkZVwubO/dObKGL5QDewynja8rzuBQyVEFSoFdSq6JmRTVWqQGyZj3lA1J08dZd4TYi00xCq9QfpFSpULAgMrOADlNuVha9/WOHUTZu9dGrSNZg1BAyqDUK2YsLgKUdgT1XiLG4k6ntrDvotWm1+zIsQbiobUyOoJBsfA9JQ4bcOkl2WrUFXtKdQVAtNcrUwyr3FQIbh3uSLkm8k4TcnD0zQINQijTenYt8QfOSzWHxA1KhFrAZz0EcOp43jwgRn/SKIRSAWzAL3gxU+RCtY8DlNphi94cPTWqVdHamjMyKyhiEsGF2IXS4BudLi9pW4TcakgT9ZUbI9B1JWmDaiWKKSqAsDmNyddNLa3VdxaLGr33C1BWFrJdDVILkMUzHhoCbC546Rw6ssTvBhcwRnVmGYsLBgmVO0cseC5VsTrfUTxq704QGmA4q9o/ZgoAwU5c921uFsRa1/iHiRRncyu1eqWqUxSq9srMMrVOzqUzTAUNSujgBLsHIOX4dbS1Tc9FZXWtVVlq0qoNkOtOj2GWxXgyced+EcOrnBbQoViDTdKhKh7rY90syhvLMjDzU9JOyC97C/W0oN09hthlqs4QVK1RnK02LKikkrTUsqkgFmPAasZsUisHUEWIBHQz4lJRwUDyFvpPSIHm9MNoQCPEX+s+ogAsAAPCZxAREQERECJtPC9pSZL2zC15oW0N3KlJczAOL8tZ0efIHG9oVHRe6rEnmATbx85T0cK5N8jexndamDRuKKfQTFdnUhwpr7Sppy/YuwqzqWVDqQLnp/f0nRNgbKGHp2OrHUn8JaIgAsBYeEyi0k0+xESKREQEREBERAREQEREBERAREQEREBERAREQEREBERAREQERED//Z;" vertex="1" parent="1">
          <mxGeometry x="584.75" y="149.75" width="70.5" height="70.5" as="geometry" />
        </mxCell>
        <mxCell id="bcFrRtoI7LXR-CrgGl4P-13" value="Bitcoind" style="text;html=1;strokeColor=none;fillColor=none;align=center;verticalAlign=middle;whiteSpace=wrap;rounded=0;" vertex="1" parent="1">
          <mxGeometry x="590" y="230" width="60" height="30" as="geometry" />
        </mxCell>
      </root>
    </mxGraphModel>
  </diagram>
</mxfile>
